<svg xmlns="http://www.w3.org/2000/svg" version="1.1" xmlns:xlink="http://www.w3.org/1999/xlink" xmlns:svgjs="http://svgjs.com/svgjs" width="1000" height="1000"><rect width="1000" height="1000" rx="200" ry="200" fill="#ffffff"></rect><g transform="matrix(10.227563283047814,0,0,10.227563283047814,99.97319273101442,149.80750898915795)"><svg xmlns="http://www.w3.org/2000/svg" version="1.1" xmlns:xlink="http://www.w3.org/1999/xlink" xmlns:svgjs="http://svgjs.com/svgjs" width="78.22" height="68.48"><svg id="Layer_1" data-name="Layer 1" xmlns="http://www.w3.org/2000/svg" viewBox="0 0 78.22 68.48"><path d="M331.93,652.12l-22.72-19.35c-1.5-1.28-1.88-1.33-3.87-1.38h-28l24.34,20.73Zm1.7,3.1H302.09l-5.23,11.14H302c1.43,0,1.85,1.32,1.3,2.5l-14.56,31h19.11c2.86,0,4.62.3,5.94-2.35l19.85-42.29Zm-59.84-22.78-17.72,37.77c-.83,1.74-1.15,2.36.66,3.91l29,24.75c1.77-3.8,3.56-7.6,5.34-11.39l-15.66-13.34a1.56,1.56,0,0,1,2-2.38l15,12.8L298,672.92,282.3,659.58a1.56,1.56,0,0,1,2-2.37l9.58,8.16,5.3-11.29-25.41-21.64Z" transform="translate(-255.41 -631.39)"></path></svg></svg></g></svg>